# xmcd
#
# Track frame offsets:
#	150
#	24723
#	44046
#	58194
#	81567
#	127365
#	152838
#	175536
#
# Disc length: 2584 seconds
#
# Revision: 0
# Processed by: cddbd v1.5.2PL0 Copyright (c) Steve Scherf et al.
# Submitted via: audiograbber 1.83.01
#
DISCID=740a1608
DTITLE=The Allman Brothers Band - Unplugged in LA
DYEAR=1900
DGENRE=RnR
TTITLE0=the allman brothers band - live unplugged los angeles 6-11-92 - 01 come
TTITLE0=on in my kitchen
TTITLE1=the allman brothers band - live unplugged los angeles 6-11-92 - 02 seve
TTITLE1=n turns
TTITLE2=the allman brothers band - live unplugged los angeles 6-11-92 - 03 midn
TTITLE2=ight rider
TTITLE3=the allman brothers band - live unplugged los angeles 6-11-92 - 04 sout
TTITLE3=h bound
TTITLE4=the allman brothers band - live unplugged los angeles 6-11-92 - 05 in m
TTITLE4=emory of elizabeth reed
TTITLE5=the allman brothers band - live unplugged los angeles 6-11-92 - 06 goin
TTITLE5=' down the road
TTITLE6=the allman brothers band - live unplugged los angeles 6-11-92 - 07 meli
TTITLE6=ssa
TTITLE7=the allman brothers band - live unplugged los angeles 6-11-92 - 08 midn
TTITLE7=ight blues
EXTD=
EXTT0=
EXTT1=
EXTT2=
EXTT3=
EXTT4=
EXTT5=
EXTT6=
EXTT7=
PLAYORDER=
